<svg width="51" height="15" viewBox="0 0 51 15" fill="none" xmlns="http://www.w3.org/2000/svg">
<path d="M4.2433 13.3995C3.86194 13.4329 3.51313 13.4124 3.19685 13.3381C2.88092 13.2678 2.60388 13.1489 2.36573 12.9815C2.12369 12.8145 1.93112 12.6078 1.78802 12.3615C1.6488 12.1149 1.56558 11.8359 1.53834 11.5246C1.51553 11.2639 1.53494 11.0152 1.59658 10.7784C1.66176 10.5375 1.76274 10.3247 1.89953 10.1402C2.03631 9.95572 2.2018 9.80792 2.39598 9.69682C2.58982 9.58184 2.79959 9.51447 3.02529 9.49472C3.30547 9.47021 3.54702 9.51966 3.74996 9.64307C3.95289 9.76647 4.08843 9.94871 4.15658 10.1898C3.7402 10.2262 3.41913 10.3661 3.19338 10.6093C3.08583 10.7246 3.00562 10.861 2.95275 11.0186C2.90376 11.1758 2.88727 11.3458 2.90327 11.5287C2.93391 11.8789 3.05943 12.1483 3.27983 12.3369C3.50377 12.5212 3.78891 12.5982 4.13525 12.5679C4.34149 12.5498 4.53088 12.496 4.70341 12.4064C4.87561 12.3129 5.02207 12.1942 5.1428 12.0504C5.26354 11.9065 5.35092 11.74 5.40497 11.551C5.46256 11.3577 5.48217 11.1561 5.46378 10.9459C5.42974 10.5568 5.26202 10.1637 4.96064 9.76653C4.84127 9.61229 4.71057 9.46295 4.56854 9.31853C4.43006 9.16988 4.23656 8.97507 3.98805 8.73409C3.76527 8.51831 3.57829 8.33077 3.42711 8.17146C3.27593 8.01216 3.13803 7.84777 3.01342 7.6783C2.71101 7.26951 2.54159 6.85692 2.50517 6.44054C2.47793 6.12923 2.51889 5.83548 2.62805 5.55929C2.73686 5.27921 2.90517 5.02921 3.13296 4.80931C3.36076 4.5894 3.63332 4.41066 3.95067 4.27311C4.26801 4.13555 4.61542 4.05026 4.99288 4.01724C5.63496 3.96106 6.16385 4.06772 6.57954 4.3372C6.77926 4.46873 6.93679 4.63336 7.05212 4.83109C7.17134 5.02848 7.24201 5.25365 7.26414 5.50659C7.29308 5.83736 7.23308 6.11513 7.08413 6.3399C7.01516 6.44789 6.92468 6.53423 6.81271 6.59892C6.70462 6.66327 6.58637 6.70107 6.45796 6.7123C6.15832 6.73852 5.90421 6.63527 5.69564 6.40256C5.83787 6.28033 5.94396 6.12596 6.01391 5.93947C6.08741 5.74874 6.11514 5.55026 6.09709 5.34401C6.07462 5.08718 5.98104 4.89147 5.81634 4.75687C5.6513 4.61839 5.43647 4.56072 5.17185 4.58387C5.01231 4.59783 4.86699 4.63995 4.7359 4.71024C4.6087 4.78019 4.50317 4.87372 4.4193 4.99085C4.33155 5.10832 4.26691 5.24338 4.22536 5.39602C4.18771 5.54832 4.17655 5.71202 4.19187 5.88713C4.21366 6.13618 4.29297 6.37039 4.42979 6.58977C4.56662 6.80915 4.75489 7.03383 4.9946 7.26382C5.20925 7.47638 5.4393 7.68565 5.68475 7.8916C6.25775 8.39043 6.67585 8.88909 6.93905 9.38758C7.09436 9.68377 7.18819 10.0167 7.22053 10.3864C7.25457 10.7755 7.20646 11.1444 7.07619 11.493C6.94559 11.8377 6.74313 12.1456 6.46884 12.4167C6.19488 12.6916 5.86734 12.9143 5.48623 13.0849C5.10512 13.2555 4.6908 13.3604 4.2433 13.3995ZM10.8401 13.9752C10.6221 13.9943 10.4306 14.0012 10.2655 13.9961C10.1003 13.9909 9.94253 13.9577 9.79208 13.8963C9.39862 13.7464 9.17788 13.3972 9.12988 12.8485C9.10673 12.5839 9.11984 12.2631 9.16922 11.8863C9.22249 11.5091 9.30822 11.0997 9.42643 10.6581C9.68648 9.68637 10.0315 8.74452 10.4614 7.83248C10.0666 7.89056 9.75664 7.97845 9.53167 8.09616C9.31025 8.20964 9.17125 8.36884 9.11468 8.57377C9.1497 8.57071 9.1883 8.60851 9.23047 8.68716C9.27264 8.76582 9.29747 8.84795 9.30496 8.93356C9.31722 9.07365 9.26288 9.19212 9.14196 9.28896C9.02103 9.38581 8.86523 9.44257 8.67455 9.45925C8.46053 9.47798 8.28031 9.43493 8.1339 9.3301C7.97936 9.22207 7.89222 9.0552 7.87247 8.8295C7.85511 8.63104 7.89892 8.43703 8.00389 8.24747C8.10852 8.05402 8.26595 7.88144 8.47619 7.72973C8.68997 7.57378 8.9415 7.4459 9.23078 7.34609C9.5236 7.24205 9.84124 7.17505 10.1837 7.14509C10.351 7.13045 10.5602 7.12391 10.8113 7.12547C11.3884 6.01235 11.9853 5.12687 12.6022 4.46904C13.3196 3.70439 14.0051 3.29347 14.6589 3.23627C15.048 3.20223 15.3681 3.23107 15.6193 3.32282L14.5152 12.2832L12.7932 12.4339L13.3302 8.01675C13.0307 7.90963 12.7515 7.83406 12.4928 7.79004C12.238 7.74567 11.9714 7.7239 11.6931 7.72473C11.3271 8.74096 11.0448 9.77144 10.846 10.8162C10.6398 11.8655 10.5639 12.7015 10.6184 13.3241C10.6453 13.6315 10.7192 13.8485 10.8401 13.9752ZM13.8048 4.16385C13.4748 4.38093 13.1418 4.76493 12.8057 5.31585C12.4771 5.8622 12.1749 6.48662 11.8991 7.18911C12.4531 7.24651 12.9516 7.3421 13.3947 7.47587L13.8048 4.16385ZM18.3537 3.71882C17.8042 3.98255 17.3936 4.35374 17.1218 4.83237C16.8535 5.30678 16.7482 5.8728 16.8057 6.53045C16.8275 6.7795 16.8721 6.97557 16.9395 7.11868C16.9595 7.16791 16.9829 7.21095 17.0096 7.24783C17.0276 7.2737 17.0377 7.30026 17.0401 7.3275C16.6082 7.36529 16.2855 7.30726 16.072 7.1534C15.8339 6.98602 15.6966 6.69414 15.6602 6.27776C15.6374 6.01704 15.6713 5.75527 15.762 5.49246C15.8524 5.22575 15.9904 4.96469 16.1758 4.70927C16.3507 4.46655 16.5638 4.23616 16.8153 4.0181C17.0703 3.79581 17.3491 3.59888 17.6517 3.42732C18.2871 3.06981 18.9316 2.86245 19.5854 2.80526C19.7644 2.7896 19.9246 2.78342 20.066 2.78673L20.8146 10.1323L22.69 2.59246L23.5247 2.51943L20.9827 11.7174L19.2607 11.868L18.3537 3.71882ZM25.7588 11.5172C25.3852 11.5498 25.0534 11.522 24.7633 11.4337C24.4736 11.3492 24.2285 11.2138 24.0279 11.0275C23.8361 10.8521 23.6844 10.6419 23.5727 10.3968C23.465 10.1513 23.3987 9.88657 23.3738 9.6025C23.3463 9.2873 23.3688 8.96183 23.4413 8.6261C23.5136 8.28648 23.6326 7.9663 23.7984 7.66554C23.9671 7.35278 24.1785 7.07941 24.4325 6.84544C24.6904 6.61114 24.9847 6.43442 25.3154 6.3153C25.0507 6.15809 24.8472 5.96023 24.7047 5.72174C24.5662 5.4829 24.4847 5.22339 24.4602 4.94321C24.4333 4.63579 24.4708 4.3247 24.5726 4.00994C24.678 3.69095 24.8367 3.39866 25.0488 3.13307C25.2676 2.85513 25.5302 2.63021 25.8367 2.45832C26.1468 2.28218 26.4866 2.17795 26.8563 2.14561C27.0937 2.12484 27.3203 2.13834 27.5363 2.18611C27.7518 2.22999 27.941 2.30755 28.1036 2.41879C28.2744 2.53325 28.4108 2.68013 28.5127 2.85942C28.6147 3.03872 28.6762 3.249 28.6973 3.49027C28.7126 3.66538 28.7036 3.83086 28.6702 3.98671C28.6367 4.14256 28.5841 4.28049 28.5123 4.40049C28.4404 4.52048 28.3527 4.61638 28.2492 4.68818C28.1457 4.75997 28.0356 4.80098 27.9189 4.81119C27.7009 4.83025 27.5048 4.73958 27.3304 4.53918C27.3945 4.51004 27.4566 4.45755 27.5166 4.38172C27.5763 4.302 27.627 4.20934 27.6687 4.10373C27.7069 4.00236 27.7347 3.89406 27.7521 3.77883C27.7694 3.66359 27.7735 3.55344 27.7643 3.44838C27.7446 3.22268 27.6613 3.05547 27.5146 2.94675C27.3932 2.85934 27.2372 2.82397 27.0465 2.84066C26.8753 2.85564 26.7179 2.91646 26.5743 3.02313C26.4307 3.1298 26.3116 3.26962 26.2169 3.4426C26.1219 3.61168 26.0521 3.80011 26.0076 4.00791C25.9669 4.21537 25.9558 4.42417 25.9742 4.6343C26.0072 5.01177 26.129 5.32853 26.3396 5.58458C26.5685 5.87041 26.8961 6.05153 27.3224 6.12795C26.9255 6.25286 26.57 6.49179 26.2558 6.84473C25.9742 7.16737 25.7583 7.54506 25.6079 7.97778C25.4615 8.41015 25.404 8.80729 25.4357 9.16919C25.4674 9.53109 25.58 9.80945 25.7734 10.0043C25.9884 10.2207 26.2886 10.3121 26.6738 10.2784C26.8645 10.2617 27.0627 10.2189 27.2684 10.1499C27.4777 10.0767 27.6751 9.98101 27.8609 9.86281C28.2922 9.59373 28.5983 9.26109 28.7793 8.8649L29.0644 8.96348C28.8095 9.67983 28.3769 10.2706 27.7667 10.7357C27.4724 10.9575 27.1545 11.1343 26.8132 11.2661C26.4721 11.4018 26.1207 11.4855 25.7588 11.5172ZM32.7104 3.17446L31.5781 3.27353L31.6701 2.71259C32.1099 2.67411 32.5142 2.58972 32.8832 2.45942C33.4649 2.25167 34.0471 1.93606 34.6296 1.51259L33.509 10.6215L31.7871 10.7721L32.7104 3.17446ZM37.6351 10.3193C36.9269 10.3813 36.3729 10.2788 35.9731 10.0118C35.5772 9.74453 35.3547 9.3307 35.3057 8.77034C35.2842 8.52518 35.3015 8.29625 35.3574 8.08354C35.4133 7.87082 35.5046 7.68246 35.6314 7.51844C35.8886 7.18617 36.2468 6.99994 36.706 6.95977C37.1924 6.91721 37.4942 7.09471 37.6113 7.49227C37.2839 7.56012 37.0316 7.70179 36.8544 7.91727C36.6808 8.12852 36.6074 8.38786 36.6343 8.69528C36.6588 8.97546 36.7598 9.18817 36.9371 9.33342C37.1145 9.47866 37.3453 9.53886 37.6294 9.51401C37.8589 9.49392 38.0664 9.42283 38.2518 9.30074C38.4407 9.17442 38.5964 9.00396 38.7188 8.78935C38.8415 8.57863 38.9281 8.33579 38.9785 8.06081C39.0329 7.7855 39.0461 7.48829 39.0182 7.1692C38.9695 6.61273 38.8174 6.19667 38.5619 5.92101C38.31 5.64112 37.9739 5.51956 37.5537 5.55633C37.3319 5.57573 37.0984 5.64125 36.8533 5.75288C36.6078 5.86062 36.3357 6.02167 36.0368 6.23604L35.8632 6.13359L36.3955 1.52866C37.2452 1.56019 37.9172 1.55434 38.4114 1.5111C38.7694 1.47978 39.1135 1.42418 39.4438 1.34432C39.7775 1.26022 40.1182 1.14219 40.4656 0.990237C40.4917 1.10951 40.5111 1.24113 40.5237 1.38512C40.5594 1.79371 40.4867 2.12749 40.3054 2.38646C40.0997 2.67895 39.7555 2.8463 39.273 2.88851C39.0123 2.91132 38.6564 2.89933 38.2053 2.85253C38.0514 2.84246 37.8754 2.82453 37.6771 2.79875L37.2507 2.76547L36.9615 4.97291C37.4417 4.67994 37.925 4.51218 38.4114 4.46962C38.7305 4.4417 39.0254 4.47276 39.296 4.5628C39.5666 4.65284 39.8046 4.79671 40.0101 4.99439C40.2156 5.19208 40.3805 5.44037 40.5047 5.73928C40.6288 6.03819 40.7073 6.37443 40.74 6.748C40.7822 7.23053 40.7391 7.67936 40.6107 8.09447C40.4862 8.50924 40.2871 8.8776 40.0134 9.19956C39.7432 9.51729 39.4047 9.77237 38.9981 9.96479C38.5914 10.1572 38.1371 10.2754 37.6351 10.3193ZM42.7089 5.72289C41.7983 5.80255 41.2911 5.24895 41.1873 4.06208C41.1478 3.61068 41.1708 3.17929 41.2564 2.76793C41.3458 2.35622 41.4903 1.99067 41.6898 1.67129C41.8854 1.35225 42.1237 1.09613 42.4048 0.902922C42.6859 0.709718 42.9938 0.598476 43.3285 0.569197C44.2546 0.48817 44.7698 1.04304 44.874 2.2338C44.9128 2.67742 44.8853 3.10331 44.7917 3.51146C44.7019 3.91928 44.5574 4.28482 44.3582 4.6081C44.1591 4.93137 43.9172 5.19173 43.6325 5.38916C43.3475 5.58271 43.0397 5.69395 42.7089 5.72289ZM47.0818 0.376105L47.9398 0.301036L43.7531 9.72523L42.895 9.8003L47.0818 0.376105ZM42.8353 5.21776C42.987 5.20449 43.1276 5.10788 43.2569 4.92796C43.3898 4.7438 43.4998 4.49891 43.5867 4.19329C43.6737 3.88767 43.7315 3.53952 43.76 3.14882C43.7882 2.75424 43.7841 2.34876 43.7477 1.93238C43.7201 1.61718 43.673 1.39191 43.6062 1.25659C43.536 1.1255 43.4347 1.06574 43.3024 1.07731C43.1506 1.09059 43.0065 1.19143 42.87 1.37982C42.7375 1.56787 42.6238 1.81504 42.5291 2.12134C42.4343 2.42764 42.3661 2.76886 42.3245 3.14501C42.2868 3.52082 42.2842 3.89357 42.3165 4.26325C42.3465 4.60569 42.4034 4.85362 42.4875 5.00704C42.5676 5.1608 42.6835 5.23104 42.8353 5.21776ZM47.5241 9.46589C46.6136 9.54556 46.1063 8.99195 46.0025 7.80508C45.963 7.35368 45.9862 6.92424 46.0721 6.51677C46.1616 6.10506 46.3061 5.73952 46.5055 5.42013C46.7011 5.10109 46.9395 4.84497 47.2206 4.65176C47.5017 4.45856 47.8096 4.34732 48.1442 4.31804C49.0704 4.23701 49.5854 4.78993 49.6892 5.97681C49.728 6.42042 49.7006 6.84631 49.6069 7.25447C49.5171 7.66228 49.3726 8.02783 49.1735 8.3511C48.9743 8.67438 48.7324 8.93473 48.4478 9.13217C48.1628 9.32571 47.8549 9.43695 47.5241 9.46589ZM47.6505 8.96077C47.8023 8.94749 47.9428 8.85089 48.0722 8.67096C48.2051 8.4868 48.315 8.24192 48.402 7.9363C48.489 7.63068 48.5467 7.28252 48.5753 6.89183C48.6038 6.50113 48.5999 6.0976 48.5635 5.68122C48.5359 5.36602 48.4887 5.14075 48.422 5.00543C48.3517 4.87434 48.2504 4.81458 48.1181 4.82616C47.9197 4.84352 47.7325 5.01282 47.5567 5.33405C47.3916 5.64258 47.2693 6.03756 47.1899 6.51897C47.1079 7.01629 47.0885 7.51205 47.1318 8.00625C47.1617 8.3487 47.2187 8.59663 47.3027 8.75005C47.3828 8.9038 47.4988 8.97405 47.6505 8.96077Z" fill="#5860A6"/>
</svg>
